<?xml version="1.0" encoding="utf-8"?>
<svg version="1.1" id="Layer_1" xmlns="http://www.w3.org/2000/svg" x="0px" y="0px"
	 viewBox="0 0 64.6 64.7" style="enable-background:new 0 0 64.6 64.7;" xml:space="preserve">
<style type="text/css">
	.st0{fill:#77AB00;}
	.st1{fill:none;stroke:#404727;stroke-width:2.3447;stroke-miterlimit:10;}
	.st2{fill:#00A7CE;}
	.st3{fill:#F5F2EE;}
	.st4{fill:#404727;}
</style>
<circle class="st0" cx="30.2" cy="34.5" r="30.2"/>
<circle class="st1" cx="33.2" cy="31.4" r="30.2"/>
<g>
	<rect x="28.7" y="48.7" class="st2" width="7.8" height="1.9"/>
	<rect x="28.7" y="44.9" class="st2" width="7.8" height="1.8"/>
	<path class="st3" d="M32,18.3c-5.2,0.3-9.4,4.3-9.9,9.5c-0.3,3.3,0.9,6.4,3.3,8.6c1.9,1.9,3.1,4.2,3.2,6.6h7.8
		c0.1-2.5,1.3-4.8,3.2-6.6c2.1-2,3.4-4.7,3.4-7.6C43,22.8,38,18,32,18.3z"/>
	<rect x="47.9" y="27.1" class="st4" width="4" height="1.9"/>
	<rect x="43" y="15.3" transform="matrix(0.707 -0.7072 0.7072 0.707 1.7208 36.6004)" class="st4" width="4" height="1.9"/>
	<rect x="32.2" y="9.3" class="st4" width="1.9" height="4"/>
	<rect x="20.4" y="14.2" transform="matrix(0.7071 -0.7071 0.7071 0.7071 -5.2197 19.8565)" class="st4" width="1.9" height="4"/>
	<path class="st4" d="M32.6,15.7C26.4,16,21.4,20.8,20.8,27c-0.3,3.8,1.1,7.5,3.8,10.1c1.7,1.6,2.7,3.7,2.7,5.9v8c0,0.6,0.4,1,1,1
		h3.9v0.7c0,0.6,0.4,1,1,1c0.6,0,1-0.4,1-1v-0.7h3.9c0.5,0,1-0.4,1-0.9V43c0-2.2,1-4.2,2.6-5.8c2.5-2.3,3.9-5.7,3.9-9
		C45.6,21.1,39.7,15.3,32.6,15.7z M37.1,50h-7.8v-1.9h7.8V50z M37.1,46.1h-7.8v-1.8h7.8V46.1z M40.3,35.7c-1.9,1.8-3,4.1-3.2,6.6
		h-7.8c-0.2-2.5-1.3-4.8-3.2-6.6c-2.4-2.2-3.6-5.3-3.3-8.6c0.5-5.2,4.7-9.2,9.9-9.5c6-0.3,11,4.5,11,10.5
		C43.7,31,42.4,33.7,40.3,35.7z"/>
	<rect x="14.4" y="27.1" class="st4" width="4" height="1.9"/>
</g>
</svg>
